# xmcd
#
# Track frame offsets:
#	150
#	19805
#	33708
#	51386
#	65844
#	80641
#	92681
#	113825
#	124191
#	141195
#	160749
#	172283
#	185617
#	198207
#
# Disc length: 2847 seconds
# Revision: 2
# Processed by: cddbd v1.5.2PL0 Copyright (c) Steve Scherf et al.
# Submitted via: dBpowerAMP V12.0
#
DISCID=cf0b1d0e
DTITLE=Clelia Adams - River Valley Dreaming
DYEAR=2011
DGENRE=Country
TTITLE0=River Valley Express
TTITLE1=Baby We're Really in Love
TTITLE2=The Italian Cowgirl
TTITLE3=Rainbird Yodel
TTITLE4=Peel Street Buskers
TTITLE5=Down The Line
TTITLE6=My Baby's Love
TTITLE7=Hometown Boogie
TTITLE8=Golden Butterflies
TTITLE9=The Captain and The Gypsy
TTITLE10=Jeopardy
TTITLE11=Play The Song
TTITLE12=Honky Tonk Moon
TTITLE13=La Paloma
EXTD=
EXTT0=
EXTT1=
EXTT2=
EXTT3=
EXTT4=
EXTT5=
EXTT6=
EXTT7=
EXTT8=
EXTT9=
EXTT10=
EXTT11=
EXTT12=
EXTT13=
PLAYORDER=
